<?xml version="1.0" encoding="UTF-8" standalone="no"?>
<!-- Created with Inkscape (http://www.inkscape.org/) -->
<svg id="svg1306" xmlns:rdf="http://www.w3.org/1999/02/22-rdf-syntax-ns#" xmlns="http://www.w3.org/2000/svg" height="48px" width="48px" xmlns:cc="http://web.resource.org/cc/" xmlns:xlink="http://www.w3.org/1999/xlink" xmlns:dc="http://purl.org/dc/elements/1.1/">
 <defs id="defs1308">
  <radialGradient id="radialGradient3197" gradientUnits="userSpaceOnUse" cy="11.802" cx="24.062" gradientTransform="matrix(1.4765 3.538e-24 -2.7087e-24 1.4067 -11.465 -4.223)" r="19.938">
   <stop id="stop3193" style="stop-color:#eeeeec" offset="0"/>
   <stop id="stop3195" style="stop-color:#d6d6d1" offset="1"/>
  </radialGradient>
  <radialGradient id="radialGradient3207" gradientUnits="userSpaceOnUse" cy="37.444" cx="26.618" gradientTransform="matrix(1 0 0 .28291 0 26.851)" r="18.031">
   <stop id="stop3203" offset="0"/>
   <stop id="stop3205" style="stop-opacity:0" offset="1"/>
  </radialGradient>
 </defs>
 <metadata id="metadata1311">
  <rdf:RDF>
   <cc:Work rdf:about="">
    <dc:format>image/svg+xml</dc:format>
    <dc:type rdf:resource="http://purl.org/dc/dcmitype/StillImage"/>
    <dc:title>Groupwise Instant Messanger</dc:title>
    <dc:creator>
     <cc:Agent>
      <dc:title>Andreas Nilsson</dc:title>
     </cc:Agent>
    </dc:creator>
    <dc:source>http://tango-project.org</dc:source>
    <cc:license rdf:resource="http://creativecommons.org/licenses/GPL/2.0/"/>
    <dc:contributor>
     <cc:Agent>
      <dc:title>Jakub Steiner</dc:title>
     </cc:Agent>
    </dc:contributor>
    <dc:subject>
     <rdf:Bag>
      <rdf:li>im</rdf:li>
      <rdf:li>chat</rdf:li>
      <rdf:li>groupwise</rdf:li>
      <rdf:li>gw</rdf:li>
     </rdf:Bag>
    </dc:subject>
   </cc:Work>
   <cc:License rdf:about="http://creativecommons.org/licenses/GPL/2.0/">
    <cc:permits rdf:resource="http://web.resource.org/cc/Reproduction"/>
    <cc:permits rdf:resource="http://web.resource.org/cc/Distribution"/>
    <cc:requires rdf:resource="http://web.resource.org/cc/Notice"/>
    <cc:permits rdf:resource="http://web.resource.org/cc/DerivativeWorks"/>
    <cc:requires rdf:resource="http://web.resource.org/cc/ShareAlike"/>
    <cc:requires rdf:resource="http://web.resource.org/cc/SourceCode"/>
   </cc:License>
  </rdf:RDF>
 </metadata>
 <g id="layer1">
  <path id="path3199" style="opacity:.15385;color:#000000;fill-rule:evenodd;fill:url(#radialGradient3207)" d="m44.649 37.444a18.031 5.1013 0 1 1 -36.063 0 18.031 5.1013 0 1 1 36.063 0z" transform="translate(-.60609 1.3132)"/>
  <path id="path1314" style="stroke:#babdb6;stroke-miterlimit:10;fill:url(#radialGradient3197)" d="m24.062 5.5c-10.731 0-19.437 6.946-19.437 15.5s8.712 16.177 21.459 15.577c0.828 2.633 3.86 5.802 8.911 5.913-1.3-1.666-3.08-3.325-3.12-7.334 6.834-2.403 11.625-7.823 11.625-14.156 0-8.554-8.706-15.5-19.438-15.5z"/>
  <path id="path1318" style="opacity:.78022;stroke:#fff;stroke-linecap:round;fill:none" d="m24 6.4688c-10.222 0-18.531 6.4892-18.531 14.5-0.0002 8.011 9.554 15.882 21.495 14.501-0.006 2.656 3.615 5.481 5.724 5.711-1.042-1.507-1.759-3.858-1.844-6.743 6.822-2.141 11.656-7.361 11.656-13.469 0-8.011-8.278-14.5-18.5-14.5z"/>
  <path id="path1324" style="fill:#c00;fill-rule:evenodd" d="m17 29.036v-17.036l10.79 11.081v-10.158h3.214v17.158l-10.933-11.081v10.036h-3.071z"/>
 </g>
</svg>
